<svg id="Layer_1" data-name="Layer 1" xmlns="http://www.w3.org/2000/svg" viewBox="0 0 1077.43 1080"><defs><style>.cls-1{fill:#231f20;}</style></defs><polygon class="cls-1" points="575.29 0 540.29 534.5 505.29 0 575.29 0 575.29 0"/><polygon class="cls-1" points="685.65 18.96 540.29 534.5 617.18 4.4 685.65 18.96 685.65 18.96"/><polygon class="cls-1" points="789.66 60.45 540.29 534.5 725.71 31.97 789.66 60.45 789.66 60.45"/><polygon class="cls-1" points="882.77 122.65 540.29 534.5 826.14 81.51 882.77 122.65 882.77 122.65"/><polygon class="cls-1" points="960.92 202.86 540.29 534.5 914.08 150.84 960.92 202.86 960.92 202.86"/><polygon class="cls-1" points="1020.68 297.56 540.29 534.5 985.68 236.94 1020.68 297.56 1020.68 297.56"/><polygon class="cls-1" points="1059.44 402.62 540.29 534.5 1037.81 336.04 1059.44 402.62 1059.44 402.62"/><polygon class="cls-1" points="1075.52 513.44 540.29 534.5 1068.2 443.82 1075.52 513.44 1075.52 513.44"/><polygon class="cls-1" points="1068.2 625.18 540.29 534.5 1075.52 555.56 1068.2 625.18 1068.2 625.18"/><polygon class="cls-1" points="1037.81 732.96 540.29 534.5 1059.44 666.38 1037.81 732.96 1037.81 732.96"/><polygon class="cls-1" points="985.68 832.06 540.29 534.5 1020.68 771.44 985.68 832.06 985.68 832.06"/><polygon class="cls-1" points="914.08 918.16 540.29 534.5 960.92 866.14 914.08 918.16 914.08 918.16"/><polygon class="cls-1" points="826.14 987.49 540.29 534.5 882.77 946.35 826.14 987.49 826.14 987.49"/><polygon class="cls-1" points="725.71 1037.03 540.29 534.5 789.66 1008.55 725.71 1037.03 725.71 1037.03"/><polygon class="cls-1" points="617.18 1064.6 540.29 534.5 685.65 1050.04 617.18 1064.6 617.18 1064.6"/><polygon class="cls-1" points="505.29 1069 540.29 534.5 575.29 1069 505.29 1069 505.29 1069"/><polygon class="cls-1" points="394.92 1050.04 540.29 534.5 463.39 1064.6 394.92 1050.04 394.92 1050.04"/><polygon class="cls-1" points="290.91 1008.55 540.29 534.5 354.86 1037.03 290.91 1008.55 290.91 1008.55"/><polygon class="cls-1" points="197.8 946.35 540.29 534.5 254.43 987.49 197.8 946.35 197.8 946.35"/><polygon class="cls-1" points="119.66 866.14 540.29 534.5 166.49 918.16 119.66 866.14 119.66 866.14"/><polygon class="cls-1" points="59.9 771.44 540.29 534.5 94.89 832.06 59.9 771.44 59.9 771.44"/><polygon class="cls-1" points="21.13 666.38 540.29 534.5 42.76 732.96 21.13 666.38 21.13 666.38"/><polygon class="cls-1" points="5.05 555.56 540.29 534.5 12.37 625.18 5.05 555.56 5.05 555.56"/><polygon class="cls-1" points="12.37 443.82 540.29 534.5 5.05 513.44 12.37 443.82 12.37 443.82"/><polygon class="cls-1" points="42.76 336.04 540.29 534.5 21.13 402.62 42.76 336.04 42.76 336.04"/><polygon class="cls-1" points="94.89 236.94 540.29 534.5 59.9 297.56 94.89 236.94 94.89 236.94"/><polygon class="cls-1" points="166.49 150.84 540.29 534.5 119.66 202.86 166.49 150.84 166.49 150.84"/><polygon class="cls-1" points="254.43 81.51 540.29 534.5 197.8 122.65 254.43 81.51 254.43 81.51"/><polygon class="cls-1" points="354.86 31.97 540.29 534.5 290.91 60.45 354.86 31.97 354.86 31.97"/><polygon class="cls-1" points="463.39 4.4 540.29 534.5 394.92 18.96 463.39 4.4 463.39 4.4"/><polygon class="cls-1" points="575.29 0 540.29 534.5 505.29 0 575.29 0 575.29 0"/></svg>