<?xml version="1.0" encoding="utf-8"?>
<!-- Generator: Adobe Illustrator 26.0.1, SVG Export Plug-In . SVG Version: 6.00 Build 0)  -->
<svg version="1.1" id="Layer_1" xmlns="http://www.w3.org/2000/svg" xmlns:xlink="http://www.w3.org/1999/xlink" x="0px" y="0px"
	 viewBox="0 0 1070.5 1069" style="enable-background:new 0 0 1070.5 1069;" xml:space="preserve">
<style type="text/css">
	.st0{fill:#7AB2D3;}
</style>
<g id="Layer_2_00000076600271797542112040000014574137825214438323_">
	<g id="Layer_1-2">
		<polygon class="st0" points="570.2,0 535.2,534.5 500.2,0 		"/>
		<polygon class="st0" points="680.6,19 535.2,534.5 612.1,4.4 		"/>
		<polygon class="st0" points="784.6,60.5 535.2,534.5 720.7,32 		"/>
		<polygon class="st0" points="877.7,122.7 535.2,534.5 821.1,81.5 		"/>
		<polygon class="st0" points="955.9,202.9 535.2,534.5 909,150.8 		"/>
		<polygon class="st0" points="1015.6,297.6 535.2,534.5 980.6,236.9 		"/>
		<polygon class="st0" points="1054.4,402.6 535.2,534.5 1032.8,336 		"/>
		<polygon class="st0" points="1070.5,513.4 535.2,534.5 1063.1,443.8 		"/>
		<polygon class="st0" points="1063.1,625.2 535.2,534.5 1070.5,555.6 		"/>
		<polygon class="st0" points="1032.8,733 535.2,534.5 1054.4,666.4 		"/>
		<polygon class="st0" points="980.6,832.1 535.2,534.5 1015.6,771.4 		"/>
		<polygon class="st0" points="909,918.2 535.2,534.5 955.9,866.1 		"/>
		<polygon class="st0" points="821.1,987.5 535.2,534.5 877.7,946.3 		"/>
		<polygon class="st0" points="720.7,1037 535.2,534.5 784.6,1008.5 		"/>
		<polygon class="st0" points="612.1,1064.6 535.2,534.5 680.6,1050 		"/>
		<polygon class="st0" points="500.2,1069 535.2,534.5 570.2,1069 		"/>
		<polygon class="st0" points="389.9,1050 535.2,534.5 458.3,1064.6 		"/>
		<polygon class="st0" points="285.9,1008.5 535.2,534.5 349.8,1037 		"/>
		<polygon class="st0" points="192.7,946.3 535.2,534.5 249.4,987.5 		"/>
		<polygon class="st0" points="114.6,866.1 535.2,534.5 161.4,918.2 		"/>
		<polygon class="st0" points="54.8,771.4 535.2,534.5 89.8,832.1 		"/>
		<polygon class="st0" points="16.1,666.4 535.2,534.5 37.7,733 		"/>
		<polygon class="st0" points="0,555.6 535.2,534.5 7.3,625.2 		"/>
		<polygon class="st0" points="7.3,443.8 535.2,534.5 0,513.4 		"/>
		<polygon class="st0" points="37.7,336 535.2,534.5 16.1,402.6 		"/>
		<polygon class="st0" points="89.8,236.9 535.2,534.5 54.8,297.6 		"/>
		<polygon class="st0" points="161.4,150.8 535.2,534.5 114.6,202.9 		"/>
		<polygon class="st0" points="249.4,81.5 535.2,534.5 192.7,122.7 		"/>
		<polygon class="st0" points="349.8,32 535.2,534.5 285.9,60.5 		"/>
		<polygon class="st0" points="458.3,4.4 535.2,534.5 389.9,19 		"/>
		<polygon class="st0" points="570.2,0 535.2,534.5 500.2,0 		"/>
	</g>
</g>
</svg>
