<svg xmlns="http://www.w3.org/2000/svg" viewBox="0 0 1086.78 373.41"><defs><style>.cls-1{fill:none;stroke:#000;stroke-miterlimit:10;stroke-width:14px;}</style></defs><g id="Layer_2" data-name="Layer 2"><g id="Layer_1-2" data-name="Layer 1"><path d="M22.39,125a37.23,37.23,0,0,1-11.27-1.69,25.54,25.54,0,0,1-8.6-4.35l3.24-7.28a25.94,25.94,0,0,0,7.49,4,27,27,0,0,0,9.14,1.59,19.54,19.54,0,0,0,6.41-.87A7.59,7.59,0,0,0,32.4,114a5.25,5.25,0,0,0,1.15-3.34A4.62,4.62,0,0,0,31.9,107a12.23,12.23,0,0,0-4.29-2.23q-2.62-.82-5.83-1.52a65.9,65.9,0,0,1-6.41-1.69A29.15,29.15,0,0,1,9.5,99a12.39,12.39,0,0,1-4.28-4.14A12.33,12.33,0,0,1,3.6,88.19a13.6,13.6,0,0,1,2.2-7.52,15,15,0,0,1,6.69-5.47A27.56,27.56,0,0,1,23.9,73.14a35.73,35.73,0,0,1,9,1.16,25.83,25.83,0,0,1,7.78,3.31l-3,7.27a28.07,28.07,0,0,0-7-3,26.38,26.38,0,0,0-6.91-1,17.6,17.6,0,0,0-6.26.94A7.62,7.62,0,0,0,14,84.34a5.73,5.73,0,0,0-1.11,3.42,4.67,4.67,0,0,0,1.62,3.71,11.35,11.35,0,0,0,4.25,2.19q2.63.8,5.86,1.52T31,96.87a27.88,27.88,0,0,1,5.83,2.52,12.31,12.31,0,0,1,4.29,4.1A12,12,0,0,1,42.77,110a13.47,13.47,0,0,1-2.2,7.45,15.11,15.11,0,0,1-6.73,5.47A27.8,27.8,0,0,1,22.39,125Z" transform="translate(-2.52)"/><path d="M55.73,79.48a5.7,5.7,0,0,1-4.14-1.58A5.23,5.23,0,0,1,50,74a5.08,5.08,0,0,1,1.62-3.75,5.7,5.7,0,0,1,4.14-1.58,5.89,5.89,0,0,1,4.14,1.48,4.87,4.87,0,0,1,1.62,3.78,5.4,5.4,0,0,1-1.59,3.92A5.55,5.55,0,0,1,55.73,79.48Zm-4.47,44.78V85.82h8.93v38.44Z" transform="translate(-2.52)"/><path d="M120.53,85.31a17.89,17.89,0,0,1,8.17,1.8,12.89,12.89,0,0,1,5.58,5.55,20.1,20.1,0,0,1,2,9.57v22h-8.92V103.38c0-3.4-.76-5.95-2.27-7.63a8.22,8.22,0,0,0-6.45-2.52,10.32,10.32,0,0,0-5.22,1.3,8.74,8.74,0,0,0-3.52,3.85,14.34,14.34,0,0,0-1.26,6.37v19.51H99.72V103.38c0-3.4-.76-5.95-2.27-7.63A8.22,8.22,0,0,0,91,93.23a10.27,10.27,0,0,0-5.22,1.3,8.7,8.7,0,0,0-3.53,3.85A14.34,14.34,0,0,0,81,104.75v19.51H72.07V85.82h8.57V96.11L79.05,93a13.56,13.56,0,0,1,5.66-5.69,17.6,17.6,0,0,1,8.53-2A16.34,16.34,0,0,1,102.6,88a12.91,12.91,0,0,1,5.25,8.2l-3.45-1.29A14.85,14.85,0,0,1,110.52,88,18.63,18.63,0,0,1,120.53,85.31Z" transform="translate(-2.52)"/><path d="M147.89,124.26V70.84h8.92v23.9L156.09,105l.36,10.22v9.07Zm21.24.51a17.87,17.87,0,0,1-8.72-2.13,14.18,14.18,0,0,1-6-6.51A25.56,25.56,0,0,1,152.28,105a24.29,24.29,0,0,1,2.23-11.12,14.89,14.89,0,0,1,6.05-6.48,17.27,17.27,0,0,1,8.57-2.13,20.19,20.19,0,0,1,10,2.45,18,18,0,0,1,7,6.91,22.34,22.34,0,0,1,0,20.77,18,18,0,0,1-7,6.88A20.19,20.19,0,0,1,169.13,124.77Zm-1.08-7.63a11.54,11.54,0,0,0,5.86-1.48,10.63,10.63,0,0,0,4.07-4.25,13,13,0,0,0,1.51-6.37A12.8,12.8,0,0,0,178,98.67a10.84,10.84,0,0,0-4.07-4.18,12.22,12.22,0,0,0-11.62,0,10.8,10.8,0,0,0-4.11,4.18,12.8,12.8,0,0,0-1.51,6.37,13,13,0,0,0,1.51,6.37,10.59,10.59,0,0,0,4.11,4.25A11.43,11.43,0,0,0,168.05,117.14Z" transform="translate(-2.52)"/><path d="M214.49,124.77A21.32,21.32,0,0,1,204,122.21a19,19,0,0,1-7.31-7A19.56,19.56,0,0,1,204,87.87a21.37,21.37,0,0,1,10.52-2.56,21.73,21.73,0,0,1,10.62,2.56,19,19,0,0,1,7.27,6.95,21.11,21.11,0,0,1,0,20.41,18.82,18.82,0,0,1-7.31,7A21.65,21.65,0,0,1,214.49,124.77Zm0-7.63a11.77,11.77,0,0,0,5.9-1.48,10.37,10.37,0,0,0,4.07-4.25,13.37,13.37,0,0,0,1.47-6.37,13.12,13.12,0,0,0-1.47-6.37,10.56,10.56,0,0,0-4.07-4.18,12.3,12.3,0,0,0-11.66,0,10.8,10.8,0,0,0-4.11,4.18,12.8,12.8,0,0,0-1.51,6.37,13,13,0,0,0,1.51,6.37,10.59,10.59,0,0,0,4.11,4.25A11.43,11.43,0,0,0,214.49,117.14Z" transform="translate(-2.52)"/><path d="M243.72,124.26V70.84h8.92v53.42Z" transform="translate(-2.52)"/><path d="M63.29,211.17a18,18,0,0,1-7.56-1.48,11.7,11.7,0,0,1-5-4.1A10.45,10.45,0,0,1,49,199.65a11.05,11.05,0,0,1,1.55-5.83,10.43,10.43,0,0,1,5.07-4.11,24.08,24.08,0,0,1,9.36-1.51H76.1v6H65.59c-3,0-5.08.49-6.16,1.47a4.81,4.81,0,0,0-1.62,3.71,4.53,4.53,0,0,0,1.95,3.82,8.89,8.89,0,0,0,5.4,1.44,11.67,11.67,0,0,0,5.94-1.52A8.9,8.9,0,0,0,75,198.64l1.44,5.4a10,10,0,0,1-4.61,5.26A17.11,17.11,0,0,1,63.29,211.17Zm12.09-.51v-7.84L75,201.23V187.62a7.89,7.89,0,0,0-2.41-6.15q-2.42-2.21-7.31-2.2a20.15,20.15,0,0,0-6.26,1,16.49,16.49,0,0,0-5.33,2.81l-3.53-6.55a22.39,22.39,0,0,1,7.42-3.6,31.64,31.64,0,0,1,8.85-1.23q8.43,0,13,4t4.54,12.39v22.53Z" transform="translate(-2.52)"/><path d="M90.29,179.7v-7.2h25.63v7.2Zm19.58,31.47q-6.33,0-9.79-3.28t-3.46-9.61V163.72h8.93V198a5.91,5.91,0,0,0,1.44,4.25,5.29,5.29,0,0,0,4,1.51,7.54,7.54,0,0,0,4.9-1.58l2.59,6.41a11.28,11.28,0,0,1-4,1.94A17.33,17.33,0,0,1,109.87,211.17Z" transform="translate(-2.52)"/><path d="M137.52,211.17a18,18,0,0,1-7.56-1.48,11.7,11.7,0,0,1-5-4.1,10.45,10.45,0,0,1-1.76-5.94,11.15,11.15,0,0,1,1.55-5.83,10.43,10.43,0,0,1,5.07-4.11,24.15,24.15,0,0,1,9.36-1.51h11.16v6H139.82q-4.53,0-6.15,1.47a4.81,4.81,0,0,0-1.62,3.71,4.52,4.52,0,0,0,1.94,3.82,8.93,8.93,0,0,0,5.4,1.44,11.67,11.67,0,0,0,5.94-1.52,8.85,8.85,0,0,0,3.85-4.46l1.44,5.4A10,10,0,0,1,146,209.3,17.08,17.08,0,0,1,137.52,211.17Zm12.09-.51v-7.84l-.43-1.59V187.62a7.89,7.89,0,0,0-2.41-6.15c-1.61-1.47-4-2.2-7.31-2.2a20.15,20.15,0,0,0-6.26,1,16.49,16.49,0,0,0-5.33,2.81l-3.53-6.55a22.49,22.49,0,0,1,7.42-3.6,31.64,31.64,0,0,1,8.85-1.23q8.43,0,13,4t4.54,12.39v22.53Z" transform="translate(-2.52)"/><path d="M185.9,211.17a19.33,19.33,0,0,1-8.64-1.84,13.4,13.4,0,0,1-5.87-5.61,19.35,19.35,0,0,1-2.12-9.54v-22h9.07V193q0,5.11,2.38,7.67a8.57,8.57,0,0,0,6.62,2.56,11.38,11.38,0,0,0,5.55-1.3,8.77,8.77,0,0,0,3.67-3.89,14.25,14.25,0,0,0,1.29-6.4V172.22h9v38.44h-8.56V200.22l1.51,3.24a13.58,13.58,0,0,1-5.69,5.69A17,17,0,0,1,185.9,211.17Z" transform="translate(-2.52)"/><path d="M32.47,297.06V254.58H15.77v-7.92H58.54v7.92H41.83v42.48Z" transform="translate(-2.52)"/><path d="M74.3,297.57a18,18,0,0,1-7.56-1.48,11.61,11.61,0,0,1-5-4.1A10.38,10.38,0,0,1,60,286.05a11.15,11.15,0,0,1,1.55-5.83,10.46,10.46,0,0,1,5.08-4.11A24.08,24.08,0,0,1,76,274.6H87.12v6H76.61q-4.55,0-6.16,1.47a4.81,4.81,0,0,0-1.62,3.71,4.53,4.53,0,0,0,1.94,3.82,8.93,8.93,0,0,0,5.4,1.44,11.76,11.76,0,0,0,5.94-1.51A8.93,8.93,0,0,0,86,285l1.44,5.4a10.06,10.06,0,0,1-4.61,5.26A17.23,17.23,0,0,1,74.3,297.57Zm12.1-.51v-7.84L86,287.63V274a7.88,7.88,0,0,0-2.42-6.15c-1.6-1.46-4-2.2-7.3-2.2a20.21,20.21,0,0,0-6.27,1,16.59,16.59,0,0,0-5.33,2.81l-3.52-6.55a22.44,22.44,0,0,1,7.41-3.6,31.71,31.71,0,0,1,8.86-1.23q8.41,0,13,4t4.53,12.39v22.53Z" transform="translate(-2.52)"/><path d="M128.23,258.11a18,18,0,0,1,8.24,1.8,13.39,13.39,0,0,1,5.69,5.55,19.15,19.15,0,0,1,2.13,9.57v22h-9V276.18c0-3.4-.8-5.95-2.38-7.63a8.85,8.85,0,0,0-6.77-2.52,11.73,11.73,0,0,0-5.61,1.3,8.79,8.79,0,0,0-3.78,3.85,13.82,13.82,0,0,0-1.34,6.44v19.44h-8.92V258.62h8.56v10.44l-1.51-3.24a13.4,13.4,0,0,1,5.8-5.69A18.8,18.8,0,0,1,128.23,258.11Z" transform="translate(-2.52)"/><path d="M172.08,297.57a20.33,20.33,0,0,1-10-2.45,17.66,17.66,0,0,1-6.94-6.88,22.66,22.66,0,0,1,0-20.77,17.67,17.67,0,0,1,6.94-6.91,20.33,20.33,0,0,1,10-2.45,17.45,17.45,0,0,1,8.64,2.13,14.87,14.87,0,0,1,6,6.48A24.28,24.28,0,0,1,189,277.84a25.1,25.1,0,0,1-2.16,11.09,14.53,14.53,0,0,1-5.94,6.51A17.67,17.67,0,0,1,172.08,297.57Zm1.08-7.63a11.39,11.39,0,0,0,5.79-1.48,10.92,10.92,0,0,0,4.11-4.25,12.86,12.86,0,0,0,1.54-6.37,12.6,12.6,0,0,0-1.54-6.37,11.15,11.15,0,0,0-4.11-4.18,12.16,12.16,0,0,0-11.59,0,11.12,11.12,0,0,0-4.1,4.18,12.5,12.5,0,0,0-1.55,6.37,12.76,12.76,0,0,0,1.55,6.37,10.9,10.9,0,0,0,4.1,4.25A11.42,11.42,0,0,0,173.16,289.94Zm11.73,7.12V288l.22-10.22-.72-10.23v-23.9h9.07v53.42Z" transform="translate(-2.52)"/><path d="M216.86,297.57a18,18,0,0,1-7.56-1.48,11.61,11.61,0,0,1-5-4.1,10.38,10.38,0,0,1-1.77-5.94,11.15,11.15,0,0,1,1.55-5.83,10.41,10.41,0,0,1,5.08-4.11,24.08,24.08,0,0,1,9.36-1.51h11.16v6H219.16q-4.53,0-6.15,1.47a4.81,4.81,0,0,0-1.62,3.71,4.53,4.53,0,0,0,1.94,3.82,8.93,8.93,0,0,0,5.4,1.44,11.76,11.76,0,0,0,5.94-1.51,8.92,8.92,0,0,0,3.85-4.47l1.44,5.4a10,10,0,0,1-4.6,5.26A17.23,17.23,0,0,1,216.86,297.57Zm12.1-.51v-7.84l-.44-1.59V274a7.88,7.88,0,0,0-2.41-6.15c-1.61-1.46-4-2.2-7.31-2.2a20.15,20.15,0,0,0-6.26,1,16.59,16.59,0,0,0-5.33,2.81l-3.53-6.55a22.58,22.58,0,0,1,7.42-3.6,31.66,31.66,0,0,1,8.86-1.23q8.41,0,13,4t4.53,12.39v22.53Z" transform="translate(-2.52)"/><path d="M739.56,167.46v-50.4H760.3a28.11,28.11,0,0,1,11.48,2.13,16.45,16.45,0,0,1,7.38,6.15,17.46,17.46,0,0,1,2.59,9.65,16.12,16.12,0,0,1-10,15.63,27.77,27.77,0,0,1-11.48,2.16H744.82l4.1-4.18v18.86Zm9.36-17.85-4.1-4.54h15q6.2,0,9.33-2.66a9.21,9.21,0,0,0,3.13-7.42,9.1,9.1,0,0,0-3.13-7.38q-3.13-2.62-9.33-2.63h-15l4.1-4.6Zm23.62,17.85-12.75-18.28h10l12.82,18.28Z" transform="translate(-2.52)"/><path d="M809.4,168a23.41,23.41,0,0,1-11.2-2.56,18.56,18.56,0,0,1-7.41-7,19.51,19.51,0,0,1-2.63-10.19,20,20,0,0,1,2.56-10.19,18.53,18.53,0,0,1,7-7A20.45,20.45,0,0,1,808,128.51,20,20,0,0,1,818,131a17.93,17.93,0,0,1,6.91,6.94,21.22,21.22,0,0,1,2.52,10.59c0,.34,0,.75,0,1.26s-.07,1-.11,1.33h-32v-6h27.29L819,147a11.37,11.37,0,0,0-1.34-5.8,10,10,0,0,0-3.85-4,11.33,11.33,0,0,0-5.76-1.4,11.76,11.76,0,0,0-5.79,1.4,9.53,9.53,0,0,0-3.93,4,12.61,12.61,0,0,0-1.37,6v1.44a12,12,0,0,0,1.55,6.12,10.5,10.5,0,0,0,4.43,4.14,14.4,14.4,0,0,0,6.69,1.48,15.08,15.08,0,0,0,5.84-1.08,13.74,13.74,0,0,0,4.61-3.17l4.89,5.62a17.14,17.14,0,0,1-6.59,4.6A23.67,23.67,0,0,1,809.4,168Z" transform="translate(-2.52)"/><path d="M846.62,168a18,18,0,0,1-7.56-1.48,11.61,11.61,0,0,1-5-4.1,10.38,10.38,0,0,1-1.77-5.94,11.15,11.15,0,0,1,1.55-5.83,10.46,10.46,0,0,1,5.08-4.11,24.08,24.08,0,0,1,9.36-1.51h11.16v6H848.93q-4.54,0-6.16,1.47a4.81,4.81,0,0,0-1.62,3.71,4.54,4.54,0,0,0,1.94,3.82,8.93,8.93,0,0,0,5.4,1.44,11.73,11.73,0,0,0,6-1.52,8.9,8.9,0,0,0,3.85-4.46l1.44,5.4a10.06,10.06,0,0,1-4.61,5.26A17.12,17.12,0,0,1,846.62,168Zm12.1-.51v-7.84l-.43-1.59V144.42a7.9,7.9,0,0,0-2.42-6.15c-1.6-1.46-4-2.2-7.3-2.2a20.21,20.21,0,0,0-6.27,1,16.59,16.59,0,0,0-5.33,2.81l-3.52-6.55a22.44,22.44,0,0,1,7.41-3.6,31.71,31.71,0,0,1,8.86-1.23q8.41,0,13,4t4.53,12.39v22.53Z" transform="translate(-2.52)"/><path d="M878.81,167.46V114h8.92v53.42Z" transform="translate(-2.52)"/><path d="M904.08,122.68a5.7,5.7,0,0,1-4.14-1.58,5.23,5.23,0,0,1-1.62-3.89,5.08,5.08,0,0,1,1.62-3.75,5.7,5.7,0,0,1,4.14-1.58,5.89,5.89,0,0,1,4.14,1.48,4.87,4.87,0,0,1,1.62,3.78,5.4,5.4,0,0,1-1.59,3.92A5.55,5.55,0,0,1,904.08,122.68Zm-4.47,44.78V129h8.93v38.44Z" transform="translate(-2.52)"/><path d="M915.24,136.5v-7.2h25.63v7.2ZM934.82,168q-6.33,0-9.79-3.28t-3.46-9.61V120.52h8.93v34.27a5.91,5.91,0,0,0,1.44,4.25,5.29,5.29,0,0,0,4,1.51,7.49,7.49,0,0,0,4.9-1.58l2.59,6.41a11.36,11.36,0,0,1-4,1.94A17.33,17.33,0,0,1,934.82,168Z" transform="translate(-2.52)"/><path d="M962.47,168a18,18,0,0,1-7.56-1.48,11.7,11.7,0,0,1-5-4.1,10.45,10.45,0,0,1-1.76-5.94,11.15,11.15,0,0,1,1.55-5.83,10.43,10.43,0,0,1,5.07-4.11,24.11,24.11,0,0,1,9.36-1.51h11.16v6H964.77q-4.53,0-6.15,1.47a4.81,4.81,0,0,0-1.62,3.71,4.52,4.52,0,0,0,1.94,3.82,8.93,8.93,0,0,0,5.4,1.44,11.67,11.67,0,0,0,5.94-1.52,8.85,8.85,0,0,0,3.85-4.46l1.44,5.4A10,10,0,0,1,971,166.1,17.08,17.08,0,0,1,962.47,168Zm12.09-.51v-7.84l-.43-1.59V144.42a7.89,7.89,0,0,0-2.41-6.15c-1.61-1.46-4-2.2-7.31-2.2a20.15,20.15,0,0,0-6.26,1,16.49,16.49,0,0,0-5.33,2.81l-3.53-6.55a22.49,22.49,0,0,1,7.42-3.6,31.64,31.64,0,0,1,8.85-1.23q8.43,0,13,4t4.54,12.39v22.53Z" transform="translate(-2.52)"/><path d="M1006.53,168a33.57,33.57,0,0,1-9.29-1.26,24.93,24.93,0,0,1-7-3.06l3.45-6.84a24.09,24.09,0,0,0,6.2,2.7,26.18,26.18,0,0,0,7.27,1q4.17,0,6.08-1.11a3.43,3.43,0,0,0,1.91-3.06,2.7,2.7,0,0,0-1.3-2.42,10.13,10.13,0,0,0-3.38-1.26c-1.39-.28-2.94-.55-4.64-.79s-3.41-.56-5.12-1a17.78,17.78,0,0,1-4.64-1.8,9.6,9.6,0,0,1-3.38-3.2,9.85,9.85,0,0,1-1.3-5.4,10,10,0,0,1,2.09-6.3A13.61,13.61,0,0,1,999.3,130a24.21,24.21,0,0,1,9-1.51,35.48,35.48,0,0,1,7.81.9,22.61,22.61,0,0,1,6.66,2.49l-3.53,6.84a18.21,18.21,0,0,0-5.47-2.2,25.82,25.82,0,0,0-5.54-.61,12.08,12.08,0,0,0-6.05,1.19,3.51,3.51,0,0,0-2,3.06,2.92,2.92,0,0,0,1.3,2.59,10.1,10.1,0,0,0,3.38,1.33c1.39.31,2.94.6,4.65.86s3.39.61,5.07,1a20.58,20.58,0,0,1,4.65,1.73,9.11,9.11,0,0,1,3.42,3.13,10.82,10.82,0,0,1-.83,11.56,13.84,13.84,0,0,1-6,4.1A25.71,25.71,0,0,1,1006.53,168Z" transform="translate(-2.52)"/><path d="M674.51,253.86v-50.4h7.7l22,36.8h-4l21.67-36.8h7.71l.14,50.4h-9v-36.5h1.8l-18.29,30.82H700l-18.72-30.82h2.16v36.5Z" transform="translate(-2.52)"/><path d="M754,254.37a17.94,17.94,0,0,1-7.55-1.48,11.64,11.64,0,0,1-5-4.1,10.37,10.37,0,0,1-1.76-5.94,11.14,11.14,0,0,1,1.54-5.83,10.5,10.5,0,0,1,5.08-4.11,24.08,24.08,0,0,1,9.36-1.51h11.16v6H756.3q-4.54,0-6.16,1.47a4.81,4.81,0,0,0-1.62,3.71,4.53,4.53,0,0,0,2,3.82,8.89,8.89,0,0,0,5.4,1.44,11.72,11.72,0,0,0,5.94-1.52,8.9,8.9,0,0,0,3.85-4.46l1.44,5.4a10.06,10.06,0,0,1-4.61,5.26A17.12,17.12,0,0,1,754,254.37Zm12.1-.51V246l-.43-1.59V230.82a7.91,7.91,0,0,0-2.41-6.15q-2.41-2.21-7.31-2.2a20.26,20.26,0,0,0-6.27,1,16.44,16.44,0,0,0-5.32,2.81l-3.53-6.55a22.44,22.44,0,0,1,7.41-3.6,31.76,31.76,0,0,1,8.86-1.23q8.43,0,13,4t4.54,12.39v22.53Z" transform="translate(-2.52)"/><path d="M798.06,254.37a33.52,33.52,0,0,1-9.29-1.26,25,25,0,0,1-7.06-3.06l3.46-6.84a24,24,0,0,0,6.19,2.7,26.23,26.23,0,0,0,7.27,1q4.18,0,6.09-1.11a3.43,3.43,0,0,0,1.91-3.06,2.72,2.72,0,0,0-1.3-2.42A10.13,10.13,0,0,0,802,239.1c-1.4-.28-2.94-.55-4.65-.79s-3.41-.56-5.11-1a17.78,17.78,0,0,1-4.64-1.8,9.63,9.63,0,0,1-3.39-3.2,11.16,11.16,0,0,1,.79-11.7,13.67,13.67,0,0,1,5.87-4.22,24.27,24.27,0,0,1,9-1.51,35.48,35.48,0,0,1,7.81.9,22.83,22.83,0,0,1,6.66,2.49l-3.53,6.84a18.31,18.31,0,0,0-5.47-2.2,25.85,25.85,0,0,0-5.55-.61,12.06,12.06,0,0,0-6,1.19,3.49,3.49,0,0,0-2,3.06,2.9,2.9,0,0,0,1.3,2.59,10.1,10.1,0,0,0,3.38,1.33c1.39.31,2.94.6,4.64.86s3.4.61,5.08,1a20.32,20.32,0,0,1,4.64,1.73,9,9,0,0,1,3.42,3.13,9.56,9.56,0,0,1,1.3,5.26,9.73,9.73,0,0,1-2.12,6.3,13.84,13.84,0,0,1-6,4.1A25.75,25.75,0,0,1,798.06,254.37Z" transform="translate(-2.52)"/><path d="M825.71,268.34a18,18,0,0,1-5.69-.94,12.59,12.59,0,0,1-4.61-2.59l3.53-6.55a12.19,12.19,0,0,0,3.06,1.87,9,9,0,0,0,3.56.72,6.07,6.07,0,0,0,4-1.23,10.87,10.87,0,0,0,2.81-4.17l2.16-4.9.86-1.15,14.48-34h8.64l-18,41.61a24.68,24.68,0,0,1-4,6.74,12.62,12.62,0,0,1-4.89,3.52A16.11,16.11,0,0,1,825.71,268.34Zm7.85-13.11L816.2,215.42h9.29l14.19,33.19Z" transform="translate(-2.52)"/><path d="M874.45,254.37a18,18,0,0,1-7.56-1.48,11.61,11.61,0,0,1-5-4.1,10.38,10.38,0,0,1-1.77-5.94,11.15,11.15,0,0,1,1.55-5.83,10.41,10.41,0,0,1,5.08-4.11,24.08,24.08,0,0,1,9.36-1.51h11.16v6H876.75q-4.53,0-6.15,1.47a4.81,4.81,0,0,0-1.62,3.71,4.54,4.54,0,0,0,1.94,3.82,8.93,8.93,0,0,0,5.4,1.44,11.67,11.67,0,0,0,5.94-1.52,8.85,8.85,0,0,0,3.85-4.46l1.44,5.4a10,10,0,0,1-4.6,5.26A17.12,17.12,0,0,1,874.45,254.37Zm12.1-.51V246l-.44-1.59V230.82a7.88,7.88,0,0,0-2.41-6.15c-1.61-1.47-4-2.2-7.31-2.2a20.15,20.15,0,0,0-6.26,1,16.59,16.59,0,0,0-5.33,2.81l-3.53-6.55a22.58,22.58,0,0,1,7.42-3.6,31.66,31.66,0,0,1,8.86-1.23q8.41,0,13,4T895,231.33v22.53Z" transform="translate(-2.52)"/><path d="M906.63,253.86V215.42h8.57V226l-1-3.1a12,12,0,0,1,5.4-5.94,18.92,18.92,0,0,1,9.15-2.05v8.57c-.34,0-.68-.08-1-.11l-.94,0a11.22,11.22,0,0,0-8.2,2.95q-3,3-3,9v18.57Z" transform="translate(-2.52)"/><path d="M945.3,254.37a18,18,0,0,1-7.56-1.48,11.7,11.7,0,0,1-5-4.1,10.45,10.45,0,0,1-1.76-5.94,11.05,11.05,0,0,1,1.55-5.83,10.43,10.43,0,0,1,5.07-4.11A24.11,24.11,0,0,1,947,231.4h11.16v6H947.6c-3,0-5.08.49-6.16,1.47a4.81,4.81,0,0,0-1.61,3.71,4.52,4.52,0,0,0,1.94,3.82,8.91,8.91,0,0,0,5.4,1.44,11.67,11.67,0,0,0,5.94-1.52,8.9,8.9,0,0,0,3.85-4.46l1.44,5.4a10,10,0,0,1-4.61,5.26A17.08,17.08,0,0,1,945.3,254.37Zm12.09-.51V246l-.43-1.59V230.82a7.88,7.88,0,0,0-2.41-6.15c-1.61-1.47-4-2.2-7.31-2.2a20.15,20.15,0,0,0-6.26,1,16.49,16.49,0,0,0-5.33,2.81l-3.53-6.55a22.39,22.39,0,0,1,7.42-3.6,31.64,31.64,0,0,1,8.85-1.23q8.43,0,13,4t4.54,12.39v22.53Z" transform="translate(-2.52)"/><path d="M977.48,253.86V200.44h8.93v53.42Zm7.27-8.56L985,234l20.09-18.57h10.8l-17.07,17.06-4.82,4Zm21.75,8.56-14.19-17.35,5.69-7.2,19.37,24.55Z" transform="translate(-2.52)"/><path d="M1034.07,254.37a18,18,0,0,1-7.56-1.48,11.61,11.61,0,0,1-5-4.1,10.38,10.38,0,0,1-1.77-5.94,11.15,11.15,0,0,1,1.55-5.83,10.46,10.46,0,0,1,5.08-4.11,24.08,24.08,0,0,1,9.36-1.51h11.16v6h-10.51q-4.55,0-6.16,1.47a4.81,4.81,0,0,0-1.62,3.71,4.54,4.54,0,0,0,1.94,3.82,8.93,8.93,0,0,0,5.4,1.44,11.67,11.67,0,0,0,5.94-1.52,8.87,8.87,0,0,0,3.86-4.46l1.44,5.4a10.06,10.06,0,0,1-4.61,5.26A17.12,17.12,0,0,1,1034.07,254.37Zm12.1-.51V246l-.43-1.59V230.82a7.88,7.88,0,0,0-2.42-6.15c-1.6-1.47-4-2.2-7.3-2.2a20.21,20.21,0,0,0-6.27,1,16.44,16.44,0,0,0-5.32,2.81l-3.53-6.55a22.44,22.44,0,0,1,7.41-3.6,31.71,31.71,0,0,1,8.86-1.23q8.41,0,13,4t4.53,12.39v22.53Z" transform="translate(-2.52)"/><path d="M1061.07,222.9v-7.2h25.63v7.2Zm19.59,31.47q-6.35,0-9.8-3.28t-3.45-9.61V206.92h8.93v34.27a5.91,5.91,0,0,0,1.44,4.25,5.29,5.29,0,0,0,4,1.51,7.44,7.44,0,0,0,4.89-1.58l2.6,6.41a11.45,11.45,0,0,1-4,1.94A17.33,17.33,0,0,1,1080.66,254.37Z" transform="translate(-2.52)"/><path class="cls-1" d="M329.35,68.75s140.46-59.27,274.33,0" transform="translate(-2.52)"/><path d="M598.44,66.56C592.45,46.76,600,18,608.92,0c5,33.22,16.85,66.25,38.43,92.75-33.76-3.76-67.49,6.45-98.49,19.44C560.52,94.06,577.46,73.54,598.44,66.56Z" transform="translate(-2.52)"/><path class="cls-1" d="M647.35,297.75s-140.39,65-274.24,6.95" transform="translate(-2.52)"/><path d="M378.37,306.81c6.07,19.77-1.32,48.6-10.21,66.6-5.1-33.2-17.12-66.18-38.81-92.59,33.77,3.62,67.46-6.73,98.42-19.84C416.18,279.16,399.32,299.75,378.37,306.81Z" transform="translate(-2.52)"/><path d="M437.9,173a16.7,16.7,0,0,1-5.35-.86,10.91,10.91,0,0,1-4-2.22l1.3-2.73a11.29,11.29,0,0,0,3.57,2,12.77,12.77,0,0,0,4.51.81,10.44,10.44,0,0,0,3.47-.49,4.18,4.18,0,0,0,2-1.35,3.19,3.19,0,0,0,.63-1.94,2.65,2.65,0,0,0-.83-2,6,6,0,0,0-2.13-1.25,24.38,24.38,0,0,0-2.89-.82c-1.05-.23-2.1-.51-3.17-.82a14.34,14.34,0,0,1-2.9-1.21,5.93,5.93,0,0,1-2.12-2,5.73,5.73,0,0,1-.8-3.2,6.46,6.46,0,0,1,1-3.48,7,7,0,0,1,3.08-2.56,12.73,12.73,0,0,1,5.31-1,16.5,16.5,0,0,1,4.23.56,11.76,11.76,0,0,1,3.64,1.61l-1.15,2.8a11.11,11.11,0,0,0-3.33-1.52,12.81,12.81,0,0,0-3.39-.47,9.38,9.38,0,0,0-3.4.52,4.14,4.14,0,0,0-1.94,1.4,3.32,3.32,0,0,0-.61,2,2.71,2.71,0,0,0,.82,2.07A5.93,5.93,0,0,0,435.5,158a28.87,28.87,0,0,0,2.89.82c1.05.25,2.11.52,3.17.83a13.25,13.25,0,0,1,2.9,1.19,6,6,0,0,1,2.12,2,5.58,5.58,0,0,1,.81,3.15,6.26,6.26,0,0,1-1,3.44,7.05,7.05,0,0,1-3.13,2.56A13,13,0,0,1,437.9,173Z" transform="translate(-2.52)"/><path d="M457.43,172.88a8.69,8.69,0,0,1-3.62-.7,5.56,5.56,0,0,1-2.4-1.94,4.93,4.93,0,0,1-.84-2.82,5.3,5.3,0,0,1,.72-2.73,5,5,0,0,1,2.34-2A10.89,10.89,0,0,1,458,162h5.88v2.41h-5.74c-1.68,0-2.82.28-3.4.84a2.72,2.72,0,0,0-.87,2,2.62,2.62,0,0,0,1.08,2.19,4.87,4.87,0,0,0,3,.82,6.39,6.39,0,0,0,3.31-.84,4.82,4.82,0,0,0,2.05-2.45l.66,2.31a5.19,5.19,0,0,1-2.34,2.61A8.47,8.47,0,0,1,457.43,172.88Zm6.09-.21v-3.92l-.17-.73v-6.69A4.35,4.35,0,0,0,462.1,158a5.25,5.25,0,0,0-3.72-1.17,9.85,9.85,0,0,0-3.22.54,8.18,8.18,0,0,0-2.66,1.46l-1.4-2.52a10.09,10.09,0,0,1,3.44-1.77,14.36,14.36,0,0,1,4.22-.61,8.5,8.5,0,0,1,5.88,1.85q2.07,1.86,2.07,5.67v11.2Z" transform="translate(-2.52)"/><path d="M472.94,172.67v-26h3.36v26Z" transform="translate(-2.52)"/><path d="M484.38,150.55a2.25,2.25,0,0,1-1.63-.63,2.06,2.06,0,0,1-.64-1.54,2.1,2.1,0,0,1,.64-1.57,2.25,2.25,0,0,1,1.63-.63,2.27,2.27,0,0,1,1.63.61,2,2,0,0,1,.65,1.52,2.19,2.19,0,0,1-2.28,2.24Zm-1.68,22.12V154.12h3.36v18.55Z" transform="translate(-2.52)"/><path d="M502.37,154a8.83,8.83,0,0,1,4,.87,6.26,6.26,0,0,1,2.71,2.66,9.37,9.37,0,0,1,1,4.52v10.67h-3.36V162.38a5.66,5.66,0,0,0-1.31-4.06,4.89,4.89,0,0,0-3.69-1.36,6.59,6.59,0,0,0-3.12.7,4.74,4.74,0,0,0-2,2.06,7.22,7.22,0,0,0-.71,3.4v9.55h-3.36V154.12h3.22v5l-.53-1.33A6.45,6.45,0,0,1,498,155,9.14,9.14,0,0,1,502.37,154Z" transform="translate(-2.52)"/><path d="M524,171.9a10,10,0,0,1-4.81-1.14,9.17,9.17,0,0,1-3.36-12.56,8.58,8.58,0,0,1,3.36-3.13A10.07,10.07,0,0,1,524,154a9.73,9.73,0,0,1,4.34,1,7.31,7.31,0,0,1,3.13,3,11.27,11.27,0,0,1,0,10,7.5,7.5,0,0,1-3.13,3A9.37,9.37,0,0,1,524,171.9Zm.42,7.77a17.13,17.13,0,0,1-4.95-.72,10.29,10.29,0,0,1-3.9-2l1.61-2.59a9.54,9.54,0,0,0,3.18,1.76,12.18,12.18,0,0,0,4,.65q3.28,0,4.83-1.54a6.41,6.41,0,0,0,1.54-4.69v-3.92l.34-3.67-.17-3.71v-5.08H534v16q0,4.9-2.44,7.21T524.42,179.67Zm0-10.71a6.92,6.92,0,0,0,3.29-.77,5.76,5.76,0,0,0,2.25-2.13,6.39,6.39,0,0,0,0-6.3,5.67,5.67,0,0,0-2.25-2.12,7,7,0,0,0-3.29-.75,7.11,7.11,0,0,0-3.31.75,5.62,5.62,0,0,0-2.28,2.12,6.46,6.46,0,0,0,0,6.3,5.71,5.71,0,0,0,2.28,2.13A7,7,0,0,0,524.39,169Z" transform="translate(-2.52)"/><path d="M347,214.67v-24.5h2.87l11,18.52h-1.54l10.85-18.52h2.87l0,24.5h-3.36l0-19.21h.8l-9.66,16.24h-1.61l-9.73-16.24h.88v19.21Z" transform="translate(-2.52)"/><path d="M388.2,214.88a10.86,10.86,0,0,1-5.23-1.22,8.85,8.85,0,0,1-3.5-3.36,9.57,9.57,0,0,1-1.24-4.9,9.8,9.8,0,0,1,1.2-4.9,8.78,8.78,0,0,1,3.33-3.35,9.51,9.51,0,0,1,4.78-1.2,9.32,9.32,0,0,1,4.76,1.19,8.38,8.38,0,0,1,3.23,3.34,10.34,10.34,0,0,1,1.18,5c0,.14,0,.3,0,.49s0,.36-.05.53H380.85V204.1h14l-1.37.84a6.28,6.28,0,0,0-.73-3.18,5.59,5.59,0,0,0-2.12-2.19,6.58,6.58,0,0,0-6.25,0,5.5,5.5,0,0,0-2.13,2.2,6.63,6.63,0,0,0-.77,3.24v.56a6.4,6.4,0,0,0,.85,3.31,5.88,5.88,0,0,0,2.4,2.26,7.63,7.63,0,0,0,3.54.8,7.81,7.81,0,0,0,3-.56,6.48,6.48,0,0,0,2.36-1.68l1.86,2.17a8.1,8.1,0,0,1-3.14,2.24A11,11,0,0,1,388.2,214.88Z" transform="translate(-2.52)"/><path d="M424.57,196a8.6,8.6,0,0,1,3.95.87,6.2,6.2,0,0,1,2.68,2.66,9.49,9.49,0,0,1,1,4.52v10.67H428.8V204.38a5.79,5.79,0,0,0-1.26-4.06A4.57,4.57,0,0,0,424,199a5.92,5.92,0,0,0-2.94.7,4.69,4.69,0,0,0-1.95,2.06,7.62,7.62,0,0,0-.68,3.4v9.55h-3.36V204.38a5.84,5.84,0,0,0-1.24-4.06,4.55,4.55,0,0,0-3.55-1.36,5.86,5.86,0,0,0-2.91.7,4.77,4.77,0,0,0-2,2.06,7.35,7.35,0,0,0-.7,3.4v9.55h-3.36V196.12h3.22v4.94l-.52-1.26a6.31,6.31,0,0,1,2.69-2.84,8.53,8.53,0,0,1,4.24-1,7.89,7.89,0,0,1,4.58,1.31,6.23,6.23,0,0,1,2.52,4l-1.36-.56a7,7,0,0,1,2.94-3.43A9.16,9.16,0,0,1,424.57,196Z" transform="translate(-2.52)"/><path d="M438.36,221.46V196.12h3.22v5l-.21,4.3.35,4.31v11.72Zm9.83-6.58a8.54,8.54,0,0,1-4.22-1.07,7.73,7.73,0,0,1-3-3.16,10.91,10.91,0,0,1-1.14-5.25,11.28,11.28,0,0,1,1.1-5.25,7.46,7.46,0,0,1,3-3.15,8.74,8.74,0,0,1,4.29-1.05,9.56,9.56,0,0,1,4.83,1.19,8.79,8.79,0,0,1,3.33,3.3,10.71,10.71,0,0,1,0,9.93,8.77,8.77,0,0,1-3.33,3.32A9.66,9.66,0,0,1,448.19,214.88Zm-.28-2.94a6.41,6.41,0,0,0,3.2-.8,5.83,5.83,0,0,0,2.24-2.3,7,7,0,0,0,.83-3.44,6.88,6.88,0,0,0-.83-3.45,5.86,5.86,0,0,0-2.24-2.26,6.74,6.74,0,0,0-6.37,0A5.93,5.93,0,0,0,442.5,202a7,7,0,0,0-.82,3.45,7.08,7.08,0,0,0,.82,3.44,5.9,5.9,0,0,0,2.24,2.3A6.38,6.38,0,0,0,447.91,211.94Z" transform="translate(-2.52)"/><path d="M470.49,214.88a10.9,10.9,0,0,1-5.24-1.22,8.92,8.92,0,0,1-3.5-3.36,9.57,9.57,0,0,1-1.24-4.9,9.7,9.7,0,0,1,1.21-4.9,8.69,8.69,0,0,1,3.32-3.35,9.53,9.53,0,0,1,4.78-1.2,9.3,9.3,0,0,1,4.76,1.19,8.34,8.34,0,0,1,3.24,3.34,10.34,10.34,0,0,1,1.17,5c0,.14,0,.3,0,.49s0,.36-.05.53H463.14V204.1h14l-1.36.84a6.28,6.28,0,0,0-.74-3.18,5.52,5.52,0,0,0-2.12-2.19,6.56,6.56,0,0,0-6.24,0,5.53,5.53,0,0,0-2.14,2.2,6.74,6.74,0,0,0-.77,3.24v.56a6.4,6.4,0,0,0,.86,3.31,5.88,5.88,0,0,0,2.4,2.26,7.56,7.56,0,0,0,3.53.8,7.77,7.77,0,0,0,3-.56A6.52,6.52,0,0,0,476,209.7l1.85,2.17a8.07,8.07,0,0,1-3.13,2.24A11,11,0,0,1,470.49,214.88Z" transform="translate(-2.52)"/><path d="M493.55,196a8.83,8.83,0,0,1,4,.87,6.26,6.26,0,0,1,2.71,2.66,9.37,9.37,0,0,1,1,4.52v10.67h-3.36V204.38a5.66,5.66,0,0,0-1.31-4.06,4.89,4.89,0,0,0-3.69-1.36,6.59,6.59,0,0,0-3.12.7,4.74,4.74,0,0,0-2,2.06,7.22,7.22,0,0,0-.71,3.4v9.55h-3.36V196.12h3.22v5l-.53-1.33a6.45,6.45,0,0,1,2.8-2.84A9.14,9.14,0,0,1,493.55,196Z" transform="translate(-2.52)"/><path d="M515.18,213.9a10,10,0,0,1-4.81-1.14A9.17,9.17,0,0,1,507,200.2a8.58,8.58,0,0,1,3.36-3.13,10.07,10.07,0,0,1,4.81-1.12,9.73,9.73,0,0,1,4.34,1,7.31,7.31,0,0,1,3.13,3,11.27,11.27,0,0,1,0,10,7.5,7.5,0,0,1-3.13,3A9.37,9.37,0,0,1,515.18,213.9Zm.42,7.77a17.13,17.13,0,0,1-5-.72,10.29,10.29,0,0,1-3.9-2l1.61-2.59a9.54,9.54,0,0,0,3.18,1.76,12.18,12.18,0,0,0,4,.65q3.29,0,4.83-1.54a6.41,6.41,0,0,0,1.54-4.69v-3.92l.35-3.67L522,201.2v-5.08h3.19v16q0,4.9-2.45,7.21T515.6,221.67Zm0-10.71a6.92,6.92,0,0,0,3.29-.77,5.76,5.76,0,0,0,2.25-2.13,6.39,6.39,0,0,0,0-6.3,5.67,5.67,0,0,0-2.25-2.12,7,7,0,0,0-3.29-.75,7.11,7.11,0,0,0-3.31.75,5.62,5.62,0,0,0-2.28,2.12,6.46,6.46,0,0,0,0,6.3,5.71,5.71,0,0,0,2.28,2.13A7,7,0,0,0,515.57,211Z" transform="translate(-2.52)"/><path d="M537.06,214.88a8.74,8.74,0,0,1-3.63-.7,5.62,5.62,0,0,1-2.4-1.94,5,5,0,0,1-.84-2.82,5.3,5.3,0,0,1,.72-2.73,5,5,0,0,1,2.35-2,10.84,10.84,0,0,1,4.39-.73h5.88v2.41h-5.74q-2.52,0-3.39.84a2.7,2.7,0,0,0-.88,2,2.62,2.62,0,0,0,1.08,2.19,4.89,4.89,0,0,0,3,.82,6.36,6.36,0,0,0,3.31-.84A4.77,4.77,0,0,0,543,209l.67,2.31a5.25,5.25,0,0,1-2.35,2.61A8.43,8.43,0,0,1,537.06,214.88Zm6.09-.21v-3.92L543,210v-6.69a4.34,4.34,0,0,0-1.24-3.31,5.26,5.26,0,0,0-3.73-1.17,9.85,9.85,0,0,0-3.22.54,8.18,8.18,0,0,0-2.66,1.46l-1.4-2.52a10.23,10.23,0,0,1,3.45-1.77,14.31,14.31,0,0,1,4.22-.61,8.5,8.5,0,0,1,5.88,1.85q2.06,1.86,2.06,5.67v11.2Z" transform="translate(-2.52)"/><path d="M552.56,214.67V196.12h3.22v5l-.32-1.26a5.77,5.77,0,0,1,2.59-2.94,9.08,9.08,0,0,1,4.48-1v3.25l-.4,0h-.37a5.68,5.68,0,0,0-4.27,1.61,6.37,6.37,0,0,0-1.57,4.65v9.24Z" transform="translate(-2.52)"/><path d="M574.71,214.88a9.52,9.52,0,0,1-4.18-.87,6.35,6.35,0,0,1-2.8-2.68,9.31,9.31,0,0,1-1-4.53V196.12h3.36v10.29a5.69,5.69,0,0,0,1.32,4.1,4.86,4.86,0,0,0,3.69,1.36,6.13,6.13,0,0,0,3-.72,4.84,4.84,0,0,0,2-2.1,7.26,7.26,0,0,0,.7-3.34v-9.59h3.36v18.55H581v-5l.53,1.33a6.58,6.58,0,0,1-2.73,2.87A8.33,8.33,0,0,1,574.71,214.88Z" transform="translate(-2.52)"/><path d="M600.51,196a8.86,8.86,0,0,1,4,.87,6.32,6.32,0,0,1,2.71,2.66,9.37,9.37,0,0,1,1,4.52v10.67h-3.36V204.38a5.66,5.66,0,0,0-1.31-4.06,4.9,4.9,0,0,0-3.7-1.36,6.52,6.52,0,0,0-3.11.7,4.74,4.74,0,0,0-2.05,2.06,7.22,7.22,0,0,0-.72,3.4v9.55H590.6v-26H594v12.43l-.66-1.33a6.4,6.4,0,0,1,2.8-2.84A9.14,9.14,0,0,1,600.51,196Z" transform="translate(-2.52)"/><path d="M616.12,192.55a2.25,2.25,0,0,1-1.63-.63,2.07,2.07,0,0,1-.65-1.54,2.1,2.1,0,0,1,.65-1.57,2.25,2.25,0,0,1,1.63-.63,2.29,2.29,0,0,1,1.63.61,2,2,0,0,1,.64,1.52,2.19,2.19,0,0,1-2.27,2.24Zm-1.68,22.12V196.12h3.36v18.55Z" transform="translate(-2.52)"/></g></g></svg>